<?xml version="1.0" encoding="UTF-8" standalone="no"?>
<!-- Created with Inkscape (http://www.inkscape.org/) -->

<svg
   xmlns:dc="http://purl.org/dc/elements/1.1/"
   xmlns:cc="http://creativecommons.org/ns#"
   xmlns:rdf="http://www.w3.org/1999/02/22-rdf-syntax-ns#"
   xmlns:svg="http://www.w3.org/2000/svg"
   xmlns="http://www.w3.org/2000/svg"
   xmlns:sodipodi="http://sodipodi.sourceforge.net/DTD/sodipodi-0.dtd"
   xmlns:inkscape="http://www.inkscape.org/namespaces/inkscape"
   width="39.32"
   height="39.726189"
   id="svg2"
   version="1.1"
   inkscape:version="0.48.3.1 r9886"
   sodipodi:docname="L.svg">
  <defs
     id="defs4" />
  <sodipodi:namedview
     id="base"
     pagecolor="#ffffff"
     bordercolor="#666666"
     borderopacity="1.0"
     inkscape:pageopacity="0.0"
     inkscape:pageshadow="2"
     inkscape:zoom="16.50075"
     inkscape:cx="20.666657"
     inkscape:cy="19.714805"
     inkscape:document-units="px"
     inkscape:current-layer="LetraL"
     showgrid="false"
     inkscape:window-width="975"
     inkscape:window-height="835"
     inkscape:window-x="170"
     inkscape:window-y="54"
     inkscape:window-maximized="0"
     fit-margin-top="0"
     fit-margin-left="0"
     fit-margin-right="0"
     fit-margin-bottom="0" />
  <metadata
     id="metadata7">
    <rdf:RDF>
      <cc:Work
         rdf:about="">
        <dc:format>image/svg+xml</dc:format>
        <dc:type
           rdf:resource="http://purl.org/dc/dcmitype/StillImage" />
        <dc:title></dc:title>
      </cc:Work>
    </rdf:RDF>
  </metadata>
  <g
     inkscape:label="Capa 1"
     inkscape:groupmode="layer"
     id="layer1"
     transform="translate(-109.65223,-127.21539)">
    <g
       id="LetraL"
       inkscape:export-filename="/home/kerapis/Documentos/LaTeX/Ejemplos y apuntes/tipografías + geometry + chapters/L.jpg.png"
       inkscape:export-xdpi="1200"
       inkscape:export-ydpi="1200"
       inkscape:label="#g3016">
      <g
         id="text2985"
         style="font-size:40px;font-style:normal;font-variant:normal;font-weight:normal;font-stretch:normal;line-height:125%;letter-spacing:0px;word-spacing:0px;fill:#000000;fill-opacity:1;stroke:none;font-family:EB Garamond Initials;-inkscape-font-specification:EB Garamond Initials">
        <path
           id="path3011"
           d="m 124.77223,150.85539 c 0.24,0 0.4,0 0.48,0 0.2,0 0.96,0.32 1.72,0.72 0.84,0.47999 1.56,0.72 1.92,0.72 0.56,0 1,-0.96001 1,-1.48 0,-0.2 -0.04,-0.36 -0.24,-0.36 -0.28,0 -0.64,0.32 -0.64,0.6 0,0.08 0.04,0.12 0.04,0.2 0,0.27999 -0.48,0.64 -0.76,0.64 -0.4,0 -0.56,-0.88 -0.56,-1 0,-0.24 0.08,-0.44001 0.24,-0.72 0.48,-0.8 1.2,-1.28 2.04,-1.28 0.4,0 0.6,-0.08 0.6,-0.24 0,-0.2 -0.32,-0.56001 -1,-0.96 -1.2,-0.72 -1.68,-2.32001 -1.68,-3.96 0,-3.76 2.4,-5.52001 4.76,-6.32 0,0.12 0,0.28 0,0.48 0,1.83999 1.48,4.12 2.36,4.76 0.44,0.31999 0.64,0.52 0.64,0.72 0,0.12 -0.08,0.2 -0.16,0.32 -0.12,0.15999 -0.16,0.36 -0.16,0.6 0,0.51999 0.52,1.76 0.64,1.76 0.04,0 0.08,-0.08 0.08,-0.28 0,-0.28 -0.12,-1.12001 -0.12,-1.4 0,-0.24 0,-0.36 0.12,-0.36 0.04,0 0.16,0.04 0.24,0.08 0.64,0.39999 2.12,0.68 3,0.68 0.4,0 0.8,-0.16 1.08,-0.16 0.12,0 0.2,0.04 0.2,0.12 0,0.08 -0.08,0.24 -0.2,0.44 -0.44,0.55999 -0.76,1.56 -0.76,2.28 0,1.39999 1.32,3.32 2.76,3.32 0.52,0 0.16,0.68 0.36,0.8 0.12,-0.96 1.2,0.4 1.36,0.4 0.12,0 0.28,0.2 0.56,0.64 0.08,0.15999 0.16,0.24 0.24,0.24 0.08,0 0.2,-0.08 0.44,-0.24 0.48,-0.32 0.76,-0.80001 0.76,-1.2 0,-0.16 -0.04,-0.36 -0.16,-0.48 -0.8,-1 -1.24,-1.88001 -1.24,-2.48 0,-0.48 0.32,-0.88 0.96,-0.88 0.12,0 0.2,0.04 0.2,0.12 0,0.15999 -0.12,0.4 -0.12,0.56 0,0.31999 0.24,0.8 0.48,0.8 0.16,0 0.24,-0.24001 0.24,-0.6 0,-0.24 -0.04,-0.52001 -0.12,-0.84 -0.24,-0.88 -0.4,-1.08 -1.08,-1.08 -0.72,0 -1.6,0.4 -1.6,0.72 0,0.04 0.04,0.12 0.08,0.16 0.2,0.15999 0.28,0.8 0.28,1.4 0,0.55999 -0.08,1.12 -0.24,1.12 -0.6,0 -1.64,-0.68001 -2,-1.32 -0.24,-0.44 -0.36,-1.12001 -0.36,-1.8 0,-0.56 0.08,-1.12001 0.28,-1.44 0.32,-0.52 1.36,-1.28 1.84,-1.28 0.12,0 0.28,0.16 0.36,0.36 0.04,0.15999 0.08,0.24 0.16,0.24 0.08,0 0.2,-0.12001 0.4,-0.36 0.32,-0.36 0.48,-1.04001 0.48,-1.64 0,-0.56 -0.16,-1.12 -0.6,-1.12 -0.12,0 -0.16,0.16 -0.16,0.56 0,0.47999 -0.28,0.84 -0.88,1.16 -0.48,0.23999 -0.88,0.56 -0.88,0.64 0,0.08 -0.24,0.16 -0.52,0.16 -0.28,0 -0.48,0.08 -0.48,0.16 0,0.04 -0.12,0.08 -0.36,0.08 -0.52,0 -1.24,-0.12 -2.16,-0.16 -1,-0.08 -1.28,-0.20001 -1.28,-0.44 0,-0.36 -1.72,-0.68001 -1.72,-0.84 0,-0.24 1.08,-0.88 1.56,-0.88 0.28,0 0.52,-0.08 0.52,-0.2 0,-0.04 0.04,-0.08 0.08,-0.08 0.08,0 0.2,0.08 0.32,0.2 0.48,0.39999 1.2,0.64 1.76,0.64 0.52,0 0.92,-0.16001 0.92,-0.56 0,-0.16 0,-0.28 -0.12,-0.28 -0.12,0 -0.96,0.4 -1.04,0.4 -0.08,0 -0.12,-0.04 -0.16,-0.16 -0.12,-0.28 -1.56,-0.6 -2.48,-0.6 -0.56,0 -1,0.16 -1.2,0.52 -0.12,0.19999 -0.2,0.28 -0.24,0.28 -0.04,0 -0.08,-0.08 -0.16,-0.24 -0.08,-0.2 -0.32,-0.44 -0.52,-0.56 -0.24,-0.16 -0.52,-2.56001 -0.52,-3.88 0,-0.2 0,-0.40001 0.04,-0.6 0.96,-0.2 1.76,-0.2 2.08,-0.2 7.59999,0 11.08,4.88 11.08,12.8 0,1.59999 -1.44,5.52 -2.4,5.52 -0.12,0 0,-0.52001 -0.04,-0.96 l -0.08,-0.92 -0.24,0.84 c -0.32,0.91999 -0.8,1.6 -1.24,2.2 -0.16,0.19999 -0.36,0.32 -0.48,0.32 -0.08,0 -0.44,0.04 -0.96,0.12 0.32,-1.28 0.64,-2.56001 1,-4.2 0.04,-0.2 -0.44,-0.04 -0.48,0.16 -0.64,1.63999 -1.36,3.12 -2.36,4.28 -0.56,0.08 -1.12,0.12 -1.6,0.12 -0.4,-0.04 -0.8,-0.40001 -0.8,-0.56 0,-0.12 0.24,-0.12 0.56,-0.12 0.28,0 0.52,0 0.52,-0.04 0,-0.16 -1.16,-1.24 -1.48,-1.24 -0.32,0 -0.64,0.44 -0.64,0.84 l 0,0.28 c 0,0.12 -0.08,0.2 -0.2,0.2 -0.6,0 -2.4,-1.28001 -2.76,-2.12 -0.04,-0.08 -0.04,-0.16 -0.04,-0.24 0,-0.16 0.08,-0.24 0.24,-0.24 0.16,0 0.36,0.08 0.48,0.32 0.08,0.19999 0.36,0.28 0.64,0.28 0.32,0 0.64,-0.16001 0.64,-0.36 0,-0.12 0.16,-0.24 0.36,-0.24 0.2,0 0.32,-0.08 0.32,-0.2 0,-0.08 -0.16,-0.12 -0.36,-0.12 l -0.4,0 c -0.36,0 -0.4,-0.16001 -0.44,-0.88 -0.04,-0.68 -0.2,-1 -0.6,-1 -0.24,0 -0.96,0.36 -1.16,0.36 -0.04,0 -0.04,-0.04 -0.04,-0.08 0,-0.04 0.04,-0.12001 0.08,-0.28 0.08,-0.28 0.24,-0.76001 0.32,-1.12 0.2,-0.76 1.2,-1.44 2.2,-1.44 1.16,0 2.16,1.08 2.16,1.76 0,0.39999 -0.32,0.68 -0.84,0.68 -0.12,0 -0.16,-0.04 -0.16,-0.12 0,-0.12 0.16,-0.32001 0.16,-0.48 0,-0.16 -0.12,-0.28 -0.28,-0.28 -0.16,0 -0.24,0.2 -0.24,0.44 0,0.47999 0.36,1.28 0.92,1.28 l 0.16,0 c 0.16,0 0.28,0.08 0.28,0.2 0,0.12 0.28,1.28 0.92,1.36 0.76,0.04 1.08,-1.12 1.64,-1.12 0.12,0 0.16,0.08 0.16,0.2 0,0.12 -0.12,0.44 -0.12,0.56 0,0.08 0.08,0.12 0.12,0.12 0.28,0 0.92,-1.04001 0.92,-1.56 0,-0.28 -0.2,-0.48 -0.52,-0.48 -0.44,0 -1.08,0.32 -1.08,0.6 0,0.27999 -0.52,0.84 -0.88,0.84 -0.2,0 -0.32,-0.16001 -0.32,-0.4 0,-0.32 0.64,-0.56001 0.64,-1.48 0,-0.16 -0.32,-0.44 -0.48,-0.4 -0.28,0.04 -0.36,-0.08 -0.36,-0.24 0,-0.8 -1.52,-2 -2.6,-2 -1.52,0 -3.08,0.88 -3.6,2.04 -0.24,0.47999 -0.6,0.8 -0.88,0.8 -0.28,0 -0.48,-0.08 -0.48,-0.2 0,-0.04 -0.04,-0.08 -0.08,-0.08 -0.6,0 -1.12,0.72 -1.12,1.2 0,0.47999 0.48,0.8 0.88,0.8 0.16,0 0.32,-0.08 0.32,-0.24 0,-0.12 0.16,-0.24 0.32,-0.24 0.12,0 0.2,0.12 0.2,0.36 0,0.31999 -0.16,0.76 -0.16,1.08 0,0.63999 0.28,1.12 0.68,1.12 0.2,0 0.4,-0.16001 0.4,-0.36 0,-0.12 0.04,-0.2 0.08,-0.2 0.08,0 0.2,0.12 0.44,0.4 0.28,0.31999 0.96,0.88 1.52,1.24 0.6,0.35999 1,0.8 1,1.12 0,0.43999 0.2,0.68 0.6,0.68 0.24,0 0.52,-0.16001 0.84,-0.32 0.4,-0.24 0.88,-0.28 1.28,-0.28 0.2,0 0.56,0.08 1.12,0.16 -1.6,1.59999 -3.76,2.52 -6.76,2.52 l -5.32,0 c -2.4,0 -3.12,-1.04001 -3.12,-4.2 l 0,-5 m -7.52,9.6 c 0.08,-0.44 0.44,-1.04001 1,-1.6 0.36,-0.4 0.6,-1.00001 0.6,-1.32 0,-0.24 -0.04,-0.36 -0.08,-0.36 -0.04,0 -0.04,0 -0.08,0.08 -0.36,0.83999 -1.28,2.16 -1.48,2.16 -0.08,0 -0.08,-0.24001 -0.08,-0.6 0,-0.88 0.36,-3.52001 0.36,-3.8 0,-0.28 0.4,-0.76 0.76,-0.76 0.4,0 0.64,0.52 0.72,1.44 0.04,0.51999 0.04,0.76 0.08,0.76 0.04,0 0.16,-0.56001 0.16,-0.8 0,-0.76 -0.4,-1.52001 -0.4,-2.28 0,-1.08 0.44,-2 1.36,-2.08 l 0,6.48 c 0,1.75999 -1.12,2.32 -2.92,2.68 m 16.76,-24.72 c -0.16,0 -0.32,0.04 -0.48,0.08 0.68,-2.28 2.36,-4.76001 3.44,-5.44 0.36,-0.28 0.88,-0.56001 0.88,-0.8 0,-0.32 0.24,-0.44 0.72,-0.44 0.36,0 0.68,0.08 0.68,0.16 0,0.08 -0.08,0.28 -0.28,0.44 -1.32,0.91999 -4.28,3.2 -4.96,6 m -18.64,25.56 0.64,0 c 0.2,0.15999 0.36,0.44 0.36,0.72 0,0.35999 -0.64,0.6 -1.52,0.6 -0.36,0 -0.44,-0.08 -0.44,-0.36 0,-0.24 0.16,-0.44 0.32,-0.44 0.28,0 0.44,-0.32001 0.64,-0.52 m 3.24,1.2 c -0.04,0 -0.04,0 -0.04,0.04 0,0.04 0.72,0.92 0.96,0.92 0.04,0 0.08,-0.04 0.08,-0.08 0,-0.2 -0.8,-0.88 -1,-0.88 m 24.16,-19.72 c 0.24,0 0.56,-0.24001 0.68,-0.72 0.08,-0.36 0.12,-0.68 0.12,-0.68 0,0 -0.28,0.04 -0.64,0.08 -0.44,0.04 -0.6,0.24 -0.6,0.72 0,0.39999 0.2,0.6 0.44,0.6 m -3.2,-3.6 c 0,0.15999 -0.08,0.24 -0.24,0.24 -0.4,0 -1.52,-0.68 -2.12,-0.68 -0.36,0 -0.72,0.16 -0.72,0.28 0,0.08 0.16,0.16 0.44,0.16 l 0.12,0 c 0.4,0 0.68,0.24 0.96,0.8 0.2,0.35999 0.32,0.68 0.32,0.84 0,0.04 -0.04,0.04 -0.04,0.08 0,0.04 0.2,0.08 0.56,0.08 0.4,0 0.84,-0.12001 0.96,-0.28 0.08,-0.12 0.16,-0.16 0.24,-0.16 0.08,0 0.8,0.4 0.88,0.4 0,-0.04 -0.08,-0.12 -0.16,-0.24 -0.28,-0.4 -0.44,-0.72001 -0.44,-1 0,-0.4 0.32,-0.6 0.8,-0.6 0.56,0 0.88,0.28 0.88,0.84 0,0.39999 0.44,0.92 0.68,0.92 0.12,0 0.16,-0.08 0.16,-0.2 0,-0.44 -0.68,-1.44001 -1.28,-1.8 -0.44,-0.28 -0.68,-0.4 -0.88,-0.4 -0.36,0 -1.12,0.52 -1.12,0.72 m -13.6,15.16 c -0.12,0 -0.16,0.04 -0.16,0.16 0,0.12 0.2,0.24 0.48,0.24 l 0.28,0 c 0.28,0 0.36,0.08 0.36,0.52 0,0.23999 -0.04,0.68 -0.04,1 0,1.07999 0.52,1.96 1.32,2.2 0.04,0 0.04,-0.04 0.04,-0.08 0,-0.28 -0.6,-1.48001 -0.96,-1.76 -0.08,-0.04 -0.08,-0.08 -0.08,-0.12 0,-0.04 0,-0.04 0.04,-0.04 0.4,0 2.04,0.92 2.48,0.92 0.12,0 0.2,-0.04 0.2,-0.12 0,-0.24 -0.8,-1.56001 -1.08,-1.72 -0.16,-0.12 -0.28,-0.24 -0.28,-0.32 0,-0.04 0.04,-0.08 0.12,-0.08 0.28,0 0.92,0.4 1.12,0.72 0.12,0.19999 0.4,0.48 0.68,0.6 0.2,0.08 0.28,0.16 0.28,0.28 0,0.19999 -0.32,0.4 -0.32,0.64 0,0.19999 0.12,0.44 0.32,0.8 l 0.52,0.8 0.04,-0.76 c 0.04,-0.44 0.04,-0.6 0.12,-0.6 0.04,0 0.12,0.12 0.24,0.32 0.16,0.27999 0.32,0.92 0.36,1.36 0.04,0.47999 0.08,0.68 0.24,0.68 0.24,0 0.68,-0.32001 0.68,-0.48 0,-0.08 -0.08,-0.20001 -0.2,-0.36 -0.24,-0.32 -0.64,-1.20001 -0.64,-1.76 0,-0.08 0,-0.12 0.04,-0.12 0.04,0 0.12,0.08 0.24,0.16 0.24,0.19999 0.52,0.6 0.68,0.88 0.08,0.15999 0.12,0.24 0.16,0.24 0.04,0 0.04,-0.08 0.04,-0.16 0,-0.96 -0.2,-1.40001 -0.96,-1.68 -0.44,-0.16 -1,-0.28 -1.16,-0.28 -0.2,0 -0.52,-0.20001 -0.76,-0.44 -0.36,-0.36 -1.16,-0.56001 -1.16,-1.12 0,-0.16 0.04,-0.24 0.08,-0.24 0.08,0 0.44,0.28 0.56,0.28 0.04,0 0.04,0 0.04,-0.04 0,-0.04 0,-0.04 0.04,-0.04 0.16,0 0.52,0.28 0.72,0.28 0.04,0 0.16,-0.04 0.16,-0.08 0,-0.24 -1.64,-1.24 -2.04,-1.28 -0.12,0 -0.32,0.16 -0.44,0.32 -0.2,0.31999 -0.6,0.48 -1.12,0.48 -0.32,0 -0.96,-0.2 -1.28,-0.2 m 6.04,-6.76 c 0.2,0 0.36,0.12 0.36,0.24 0,0.08 0.04,0.16 0.08,0.16 0.04,0 0.08,-0.04 0.12,-0.08 0.08,-0.12 0.4,-0.2 0.68,-0.2 0.28,0 0.44,-0.20001 0.44,-0.48 l 0,-0.48 -0.44,0.44 c -0.2,0.15999 -0.36,0.24 -0.48,0.24 -0.2,0 -0.44,-0.32001 -0.44,-0.8 0,-0.52 0.4,-1 0.88,-1 0.48,0 1.56,1.2 1.56,1.68 0,0.12 0.08,0.16 0.24,0.16 0.08,0 0.2,0 0.36,-0.04 0.32,-0.08 1.04,-0.12 1.6,-0.12 0.88,-0.04 1.08,-0.12001 1.28,-0.6 0.08,-0.16 0.12,-0.28 0.12,-0.36 0,-0.12 -0.12,-0.16 -0.28,-0.16 -0.36,0 -0.64,0.12 -0.64,0.32 0,0.04 0.04,0.12 0.04,0.16 0,0.12 -0.08,0.16 -0.24,0.16 -0.16,0 -0.4,-0.08 -0.68,-0.2 -0.16,-0.08 -0.24,-0.12 -0.32,-0.12 -0.08,0 -0.12,0.08 -0.12,0.2 0,0.15999 -0.24,0.32 -0.48,0.32 -0.6,0 -1.2,-0.84001 -1.6,-2.28 -0.24,-0.88 -0.52,-1.28 -1,-1.28 -0.16,0 -0.4,0.04 -0.64,0.16 -0.4,0.19999 -0.76,0.28 -1.08,0.28 -0.6,0 -0.92,-0.36001 -0.92,-1 0,-0.64 0.4,-1.52 1.08,-1.52 0.24,0 0.4,0.16 0.4,0.4 0,0.15999 -0.16,0.48 -0.16,0.64 0,0.15999 0.08,0.28 0.24,0.28 0.36,0 0.6,-0.32001 0.6,-0.68 0,-0.64 -0.8,-1.16 -1.24,-1.16 -0.24,0 -0.48,0.08 -0.76,0.24 -0.76,0.43999 -1.12,1.36 -1.12,2.24 0,0.99999 0.48,1.96 1.36,1.96 0.48,0 0.72,0.12 0.72,0.32 0,0.12 -0.08,0.28 -0.24,0.44 -0.16,0.15999 -0.2,0.32 -0.2,0.52 0,0.47999 0.32,1 0.76,1 l 0.16,0 m -14.12,-15.84 c 0,0.12 0.08,0.24 0.2,0.24 0.08,0 0.12,-0.04 0.2,-0.04 0.16,0 0.28,0.08 0.28,0.24 0,0.23999 0.08,0.32 0.32,0.32 0.12,0 1.28,-0.24001 1.28,-0.48 0,-0.08 -0.16,-0.24001 -0.4,-0.48 -0.36,-0.36 -0.72,-0.56 -1.08,-0.56 -0.4,0 -0.8,0.4 -0.8,0.76 m 2.4,34.48 c 0.2,0 0.32,-0.04 0.32,-0.16 0,-0.28 -0.88,-0.4 -1.16,-0.4 -0.08,0 -0.12,0 -0.12,0.04 0,0.31999 0.64,0.52 0.96,0.52 m 25.24,-7.84 c 0,0.23999 -0.32,0.44 -0.84,0.52 -0.72,0.12 -1.12,0.64 -1.12,1.36 0,0.83999 0.2,1.24 1.12,1.24 0.68,0 0.84,-0.08 0.84,-0.44 0,-0.28 -0.2,-0.4 -0.4,-0.4 -0.16,0 -0.28,0.04 -0.4,0.2 -0.04,0.08 -0.16,0.12 -0.24,0.12 -0.04,0 -0.12,0 -0.16,-0.04 -0.6,-0.28 0.52,-1.24 1.2,-1.24 0.56,0 1.56,1.52 1.56,2.4 0,0.75999 -1.52,2.64 -2.56,2.64 -0.64,0 -1.8,-0.76 -2.4,-0.76 -0.12,0 -0.24,0.04 -0.32,0.04 -0.04,0 -0.08,0 -0.08,-0.04 0,-0.08 0.2,-0.32001 0.64,-0.68 0.56,-0.44 0.96,-1.04001 0.96,-1.28 0,-0.08 -0.04,-0.12 -0.12,-0.12 -0.24,0 -0.44,0.24 -0.44,0.36 0,0.19999 -0.2,0.28 -0.44,0.28 -0.28,0 -0.6,-0.16001 -0.72,-0.36 -0.12,-0.24 -0.4,-0.36 -0.76,-0.36 -0.76,0 -1.64,0.64 -1.64,1.48 0,0.35999 0.16,0.6 0.48,0.6 0.08,0 0.16,0.04 0.16,0.12 0,0.31999 -0.56,0.4 -1,0.4 -1,0 -1.48,-0.64 -2.16,-0.64 -0.12,0 -0.36,0.12 -0.44,0.12 -0.04,0 -0.08,0 -0.08,-0.04 0,-0.12 0.48,-0.44001 1.24,-0.8 0.76,-0.36 1.2,-0.72001 1.2,-0.92 0,-0.08 -0.08,-0.12 -0.32,-0.12 -0.16,0 -0.36,0.12 -0.48,0.24 -0.12,0.15999 -0.4,0.28 -0.72,0.28 -0.32,0 -0.56,-0.12001 -0.56,-0.28 0,-0.28 -0.04,-0.28 -1.64,-0.32 -0.68,0 -0.88,0.04 -0.88,0.28 0,0.12 0.12,0.4 0.12,0.44 0,0.04 0,0.04 -0.04,0.04 -0.04,0 -0.2,-0.08 -0.44,-0.24 -0.6,-0.36 -0.36,-0.8 -1.08,-0.8 -0.28,0 -0.48,0.12 -0.48,0.32 0,0.23999 0.12,0.56 -0.2,0.56 -0.32,0 -1.32,0.72 -1.32,1.16 0,0.27999 0.32,0.76 0.32,1.08 0,0.39999 -0.24,0.68 -0.6,0.68 -0.2,0 -0.28,-0.04 -0.28,-0.16 0,-0.12 -0.16,-0.2 -0.36,-0.2 -0.24,0 -0.32,0.12 -0.32,0.28 0,0.51999 0.84,0.92 1.4,0.92 0.36,0 0.72,-0.16001 0.96,-0.44 0.2,-0.24 0.64,-0.68001 0.92,-0.92 0.2,-0.16 0.28,-0.24 0.36,-0.24 0.12,0 0.12,0.2 0.12,0.76 l 0,0.92 0.72,-0.36 c 0.4,-0.2 0.68,-0.52001 0.68,-0.68 0,-0.12 0,-0.2 0.08,-0.2 0.36,0 0.84,0.32 1.4,0.32 1.24,0 2.48,-0.8 3.6,-0.8 0.12,0 0.2,0 0.2,0.12 0,0.27999 -0.44,0.96 -0.44,1.28 0,0.47999 0.6,0.68 2.04,0.72 0.84,0 1.68,0.08 1.96,0.12 0.12,0.04 0.44,0.08 0.44,0 0,-0.08 -0.36,-0.32001 -1,-0.6 -0.6,-0.24 -1.04,-0.48 -1.04,-0.52 0,-0.04 0.6,-0.08 1.36,-0.08 1.24,0 1.96,-0.56 2.68,-0.56 0.24,0 0.28,0.24 0.28,0.8 0,0.71999 0.08,0.8 0.64,0.8 0.44,0 0.76,-0.12001 0.88,-0.4 l 0.24,-0.44 c 0.4,0.27999 0.76,0.56 1.16,0.84 l 0,-0.8 c 0,-0.84 -0.44,-1.16 -1.48,-1.16 -0.4,0 -0.52,-0.04 -0.52,-0.2 0,-0.48 1.2,-3.56001 1.2,-4.48 0,-0.28 -0.12,-0.44001 -0.36,-0.6 -0.52,-0.4 -0.8,-0.88001 -0.8,-1.24 0,-0.44 0.56,-0.84 1,-0.84 0.24,0 0.36,0.28 0.6,0.28 0.16,0 0.28,-0.08 0.28,-0.2 0,-0.52 -0.64,-0.8 -1.08,-0.8 -1.04,0 -2.28,1.12 -2.28,1.68 m -12.4,4.44 c 0,-0.2 0.04,-0.28 0.2,-0.28 0.2,0 0.4,0.12 0.4,0.24 0,0.15999 0.24,0.32 0.6,0.4 0.28,0.08 0.4,0.12 0.4,0.2 0,0.04 -0.08,0.12 -0.24,0.2 -0.24,0.12 -0.4,0.36 -0.4,0.56 0,0.15999 -0.04,0.24 -0.12,0.24 -0.28,0 -0.84,-0.92001 -0.84,-1.56 m -22.6,-10.36 c 0.04,0 0.08,-0.08 0.08,-0.32 0,-0.24 -0.12,-0.48 -0.32,-0.48 -0.2,0 -0.36,0.04 -0.36,0.12 0,0.04 0.44,0.68 0.6,0.68 m 3.16,-18.4 c 0.28,-0.2 0.6,-0.32 0.52,-0.12 -0.48,0.99999 -1.4,2.28 -1.56,2.44 -0.56,0.55999 -1.36,2.72 -1.36,4.16 0,0.91999 0.28,1.88 0.56,2.92 0.08,0.31999 0.12,0.52 0.12,0.64 0,0.08 0,0.12 -0.04,0.12 -0.08,0 -0.36,-0.48001 -0.64,-1.28 -0.24,-0.76 -0.56,-1.72001 -0.56,-2.76 0,-3.72 1.4,-5.16001 2.96,-6.12 m -3.44,-1.52 c -0.16,0 -0.28,0.28 -0.28,0.64 l 0.04,0.64 0.44,-0.52 c 0.2,-0.24 0.28,-0.4 0.28,-0.52 0,-0.16 -0.16,-0.24 -0.48,-0.24 m 19.96,5.6 c -1.64,1.31999 -2.92,3.52 -2.92,6.24 0,1.67999 1.24,2.76 1.24,3.52 0,0.12 -0.16,0.16 -0.44,0.16 -0.44,0 -1.8,-2.00001 -1.8,-3.52 0,-3.16 3.08,-6.64 3.72,-6.64 0.2,0 0.24,0.16 0.2,0.24 m 9.36,-7.28 c 0,0.08 -0.08,0.12 -0.2,0.12 -0.16,0 -0.64,-0.12001 -0.64,-0.4 0,-0.04 0.04,-0.08 0.12,-0.08 0.28,0 0.72,0.16 0.72,0.36 m -24.8,1.68 c 0,0.08 -0.12,0.24 -0.28,0.44 l -0.24,0 c -0.16,0 -0.2,0.2 -0.12,0.32 -0.2,0.12 -0.4,0.24 -0.48,0.24 -0.16,0 -0.28,-0.28001 -0.28,-0.6 0,-0.48 0.16,-0.6 0.72,-0.6 0.36,0 0.68,0.12 0.68,0.2 m 21.44,3 c -0.4,0 -0.8,0 -1.2,0.04 0.72,-2.04 2.28,-3.96001 3.08,-4.32 l 0.4,0.6 c 0.24,0.31999 0.56,0.6 0.8,0.64 0.24,0.04 0.4,0.24 0.4,0.48 0,0.55999 0.72,1.28 1.28,1.28 0.44,0 0.72,-0.20001 0.72,-0.44 0,-0.12 -0.08,-0.24 -0.24,-0.32 -0.16,-0.12 -0.24,-0.28001 -0.24,-0.52 0,-0.12 0,-0.2 0.04,-0.32 0.16,-0.4 0.4,-1.20001 0.4,-1.76 0,-0.08 0,-0.12 -0.04,-0.12 -0.08,0 -0.2,0.2 -0.4,0.52 -0.04,0.08 -0.12,0.12 -0.2,0.12 -0.4,0 -0.88,-0.56001 -0.88,-1 0,-1.08 0.36,-1.6 1.48,-1.6 0.56,0 2.28,0 2.28,0.28 0,0.47999 -0.88,1.16 -0.88,1.48 0,0.47999 0.72,0.96 1.12,0.96 0.6,0 1,-0.84001 1.2,-1.72 0.72,0.55999 1.6,1.32 1.6,2.44 0,0.71999 -0.28,1.52 -1,1.52 -0.12,0 -0.36,-0.12 -0.36,-0.2 0,-0.12 0.28,-0.36 0.28,-0.48 0,-0.2 -0.16,-0.4 -0.48,-0.4 -0.56,0 -1,0.28 -1,0.8 0,0.31999 0.24,0.8 0.52,0.84 0.2,0 0.4,0.24 0.4,0.4 0,0.12 -0.08,0.24 -0.16,0.24 -0.36,0 -1.52,-0.8 -1.76,-0.8 -0.64,0 -0.56,0.6 -1.2,0.68 -0.2,0.04 -0.72,0.16 -0.72,0.28 0,0.43999 1.76,1.44 2.44,1.44 0.44,0 0.76,-0.48 1.08,-0.48 0.08,0 -0.12,0.56 -0.12,0.8 0.04,0.83999 0.72,1.24 1.56,1.24 0.68,0 2.16,-1.40001 2.16,-2.2 0,-0.32 -0.12,-0.4 -0.2,-0.04 -0.12,0.35999 -1.08,1.2 -1.52,1.2 -0.12,0 -0.36,-0.16001 -0.36,-0.32 0,-0.36 0.8,-1.12001 0.8,-1.48 0,-0.2 -0.32,-0.32001 -0.32,-0.48 0,-0.6 0.84,-1.56001 0.84,-2.2 0,-1.88 -1.4,-3.12001 -2.36,-3.56 -0.24,-0.12 -0.32,-0.28 -0.32,-0.32 0,-0.08 0.24,-0.16 0.44,-0.16 0.36,0 0.68,-0.16001 0.68,-0.6 0,-0.52 -0.68,-0.76 -1.16,-0.76 -0.56,0 -1.04,0.16 -1.04,0.68 0,0.35999 0.4,0.56 0.12,0.56 -0.12,0 -0.4,-0.32 -0.96,-0.32 l -13.4,0 c -0.28,0 -0.48,0.12 -0.48,0.24 0,0.55999 0.76,0.8 0.76,1.6 0,0.71999 -0.84,1.16 -1.56,1.16 -0.72,0 -1.56,-0.44001 -1.56,-1.16 0,-0.8 0.76,-1.04001 0.76,-1.6 0,-0.12 -0.32,-0.24 -0.36,-0.24 l -9.32,0 c -0.88,0 -3.72,-0.36 -4.04,-0.36 -0.16,0 -0.2,0 -0.2,0.04 0,0.08 0.4,0.32 1.24,0.68 1.12,0.43999 1.68,0.96 1.68,2.24 0,0.71999 -0.36,1.12 -1.04,1.12 -0.52,0 -0.92,0.04 -0.92,-0.4 0,-0.12 0.12,-0.64 0.12,-0.76 0,-0.36 -0.2,-0.6 -0.56,-0.6 -0.68,0 -0.76,0.56 -1.52,0.56 -0.48,0 -0.88,-0.32001 -0.88,-0.84 0,-0.48 1.12,-0.36001 1.12,-1.16 0,-0.44 -0.24,-0.72 -0.44,-0.72 -0.12,0 -0.44,0.04 -0.72,0.12 -0.72,0.23999 -0.84,1 -0.84,2 0,0.71999 0.6,1.32 1.08,1.6 0.4,0.19999 0.76,0.16 0.76,0.4 0,0.63999 -0.24,0.88 -0.56,1.2 -1.48,1.55999 -2.6,4.12 -2.4,7.08 0.12,3.91999 1.76,6.48 5.44,6.48 2.2,0 4.12,-1.72001 4.12,-4.2 0,-1.2 -0.72,-2.48001 -1.96,-3 -0.28,-0.12 -0.24,-0.28001 -0.24,-0.52 0,-0.12 0.12,-0.2 0.36,-0.2 0.16,0 0.28,-0.16001 0.28,-0.36 0,-0.4 -0.4,-0.56 -1,-0.64 -0.76,-0.08 -1.16,-0.04 -1.16,-0.68 0,-0.12 0.04,-0.56 0.24,-0.56 0.24,0 0.32,0.4 0.56,0.4 0.2,0 0.32,-0.16001 0.32,-0.4 0,-0.4 -0.28,-0.64 -0.68,-0.64 -0.8,0 -1.4,0.52 -1.4,1.36 0,0.31999 0.24,0.64 0.44,0.84 0.16,0.15999 0.36,0.32 0.36,0.4 0,0.12 -0.24,0.12 -0.52,0.2 -0.6,0.23999 -1.28,1.44 -1.28,2.52 0,1.27999 1,2.32 2.24,2.32 0.36,0 0.56,-0.16001 0.56,-0.44 0,-0.16 0.12,-0.4 0.32,-0.44 0.2,-0.04 0.36,-0.32001 0.36,-0.56 0,-0.44 -0.48,-1.08 -0.92,-1.08 -0.32,0 -0.76,0.44 -0.76,0.84 0,0.27999 0.4,0.4 0.4,0.64 0,0.12 -0.12,0.28 -0.48,0.28 -0.6,0 -1.04,-0.44001 -1.04,-1.4 0,-1.24 0.84,-1.64 2.08,-1.64 1.28,0 2.32,1.32 2.32,2.84 0,1.39999 -1.32,3 -3.36,3 -2.56,0 -3.4,-1.52001 -3.4,-5.08 0,-4.52 2.36,-4.68001 2.68,-5.4 0.08,-0.2 0.16,-1.08001 0.24,-1.72 3.08,0.43999 5.12,1.04 5.12,3.48 l 0,13.48 c -0.4,0.04 -0.68,0.08 -0.8,0.12 -0.52,0.04 -0.92,0.32 -1.32,0.8 -0.32,0.39999 -0.44,0.6 -0.6,0.6 -0.12,0 -0.24,-0.12001 -0.4,-0.28 -0.2,-0.2 -0.4,-0.32 -0.56,-0.32 -0.08,0 -0.12,0.04 -0.12,0.12 0,0.19999 0.64,0.68 0.64,0.88 0,0.08 -0.04,0.12 -0.12,0.2 -0.64,0.35999 -1.04,2.56 -1.04,4.92 0,0.55999 0.04,1.32 0.04,1.8 0,0.71999 -0.08,1.16 -0.2,1.4 -0.44,0.04 -0.92,0.12 -1.4,0.16 -0.16,-0.16 -0.32,-0.40001 -0.52,-0.72 -0.24,-0.4 -0.72,-0.8 -1.08,-0.92 -0.44,-0.16 -0.68,-0.60001 -0.68,-1.08 0,-0.4 0.16,-0.84001 0.52,-1.08 0.36,-0.24 0.64,-0.4 0.88,-0.4 0.2,0 0.32,0.12 0.32,0.32 0,0.43999 0.36,0.88 0.72,0.88 0.2,0 0.32,-0.24001 0.32,-0.56 0,-0.44 -0.2,-0.96 -0.52,-1.04 -0.32,-0.04 -0.52,-0.32001 -0.52,-0.64 0,-0.44 -0.2,-0.56001 -1,-0.72 -0.84,-0.16 -1.08,-0.36001 -1.36,-1.08 -0.12,-0.28 -0.16,-0.52001 -0.16,-0.68 0,-0.4 0.68,-0.68 1.04,-0.68 0.28,0 0.44,0.16 0.44,0.48 0,0.51999 0.96,1.08 1.68,1.08 0.48,0 0.72,-0.28001 0.72,-0.64 0,-0.28 -0.16,-0.56 -0.52,-0.64 -0.36,-0.08 -0.52,-0.36001 -0.52,-0.64 0,-0.6 0.56,-0.84 1.28,-0.84 0.24,0 0.44,0.04 0.6,0.04 0.12,0 0.16,-0.04 0.16,-0.16 0,-0.2 -0.16,-0.60001 -0.16,-0.88 0,-0.72 0.48,-1.4 1.04,-1.4 0.16,0 0.48,0.04 0.48,0.04 l 0.04,0 c 0,-0.04 -0.08,-0.08 -0.28,-0.2 -0.32,-0.16 -0.64,-0.28 -1,-0.28 -0.36,0 -0.68,0.12 -1,0.28 -0.2,0.12 -0.36,0.2 -0.48,0.2 -0.12,0 -0.2,-0.04 -0.32,-0.16 -0.88,-0.68 -1.2,-0.88 -1.6,-0.88 -0.16,0 -0.24,0.04 -0.24,0.16 0,0.15999 0.32,0.68 0.32,0.8 0,0.08 -0.08,0.12 -0.24,0.12 -0.4,0 -2.2,-0.44 -2.68,-0.44 -0.2,0 -0.32,0.08 -0.32,0.24 0,0.35999 0.6,1.04 1.36,1.36 0.6,0.23999 0.84,0.36 0.84,0.6 0,0.12 -0.08,0.28 -0.2,0.52 -0.2,0.39999 -0.56,1.08 -0.84,1.56 -0.2,0.31999 -0.28,0.72 -0.28,1.08 0,0.63999 0.28,1.24 0.8,1.8 0.2,0.19999 0.28,0.36 0.28,0.56 0,0.15999 -0.08,0.32 -0.24,0.56 -0.28,0.35999 -0.4,0.88 -0.4,1.4 0,1.35999 0.84,2.96 1.96,3.2 0.76,0.15999 1.12,0.48 1.12,1.04 0,0.31999 -0.28,1.32 -0.48,1.32 -0.04,0 -0.04,-0.04 -0.08,-0.08 -0.2,-0.52 -0.32,-0.72 -0.56,-0.72 -0.2,0 -1,0.4 -1.2,0.4 -0.24,0 -0.32,-0.28001 -0.32,-0.52 l 0,-0.16 c 0,-0.12 -0.12,-0.32 -0.32,-0.32 -0.2,0 -0.4,0.48 -0.4,0.96 0,0.75999 0.6,1.28 1.56,1.28 0.28,0 0.4,0 0.4,0.08 0,0.27999 -1.48,0.92 -1.88,0.92 -0.16,0 -0.44,-0.08 -0.56,-0.08 -0.16,0 -0.24,0.08 -0.24,0.28 0,0.91999 0.08,1 1.44,1.04 l 0.48,0 c 1.2,0 1.84,-0.28001 1.84,-0.76 0,-0.32 0.2,-0.52 0.44,-0.52 0.2,0 0.48,0.12 0.68,0.36 l 0.4,0.44 0.44,-0.4 c 0.16,-0.16 0.28,-0.24 0.36,-0.24 0.04,0 0.08,0.04 0.08,0.08 0,0.15999 0.08,0.2 0.2,0.2 0.28,0 1.04,-0.60001 1.04,-1.08 0,-0.28 -0.48,-1.2 -0.68,-1.2 -0.08,0 -0.16,0.2 -0.16,0.32 0,0.19999 0.12,0.4 0.28,0.56 0.12,0.12 0.2,0.2 0.2,0.28 0,0.12 -0.36,0.2 -0.52,0.2 -0.36,0 -0.64,-0.20001 -0.76,-0.56 -0.08,-0.2 -0.44,-0.36 -0.88,-0.4 -0.48,-0.04 -0.76,-0.16001 -0.76,-0.36 0,-0.52 1.64,-1.04 2.16,-1.04 0.64,0 1.16,0.32 1.8,1 0.48,0.55999 1.36,1.24 1.92,1.52 0.56,0.27999 1,0.56 1,0.68 0,0.31999 2.64,0.92 4.04,0.92 1.32,0 2.52,-0.36001 2.52,-0.76 0,-0.08 0.28,-0.36001 0.68,-0.6 0.52,-0.32 0.68,-0.72001 0.68,-1.6 0,-0.64 -0.16,-1.28 -0.36,-1.4 -0.44,-0.24 -0.92,-0.76 -1.6,-0.76 -0.56,0 -1.12,0.28 -1.32,0.76 -0.12,0.31999 -0.36,0.6 -0.56,0.6 -0.12,0 -0.16,0.12 -0.16,0.24 0,0.35999 0.44,1.36 1.08,1.36 0.76,0 1.2,-0.28001 1.2,-1 l -0.04,-0.72 c -0.44,0.27999 -0.92,0.6 -1.36,0.88 l 0.08,-0.68 c 0.08,-0.6 0.56,-0.92 1.12,-0.92 0.84,0 1.44,0.56 1.44,1.32 0,1.03999 -0.88,2.28 -2,2.28 -0.36,0 -0.64,0.08 -0.64,0.2 0,0.04 -0.04,0.08 -0.08,0.08 -0.08,0 -0.2,-0.08 -0.36,-0.16 -0.24,-0.16 -0.72,-0.32 -1.12,-0.4 -0.4,-0.08 -0.84,-0.20001 -0.96,-0.36 -0.08,-0.08 -0.28,-0.16 -0.44,-0.16 l -0.12,0 c -0.4,0 -0.84,-1.40001 -0.84,-2.72 0,-0.56 -1.12,-0.24 -1.76,-0.08 -0.2,0.04 0.2,0.4 0.28,0.4 0.12,0 0.32,-0.36 0.44,-0.36 0.16,0 0.32,0.4 0.72,1.56 0.08,0.15999 0.08,0.32 0.08,0.4 0,0.12 -0.04,0.16 -0.08,0.16 -0.12,0 -0.36,-0.24001 -0.6,-0.68 -0.12,-0.24 -0.2,-0.36 -0.24,-0.36 l 0,0.04 c 0,0.47999 0.28,1.4 0.48,1.64 0.08,0.12 0.16,0.2 0.16,0.24 0,0 0,0.04 -0.04,0.04 -0.28,0 -1.36,-0.64001 -1.36,-0.8 0,-0.12 -0.2,-0.28 -0.44,-0.36 -0.48,-0.16 -1.4,-1.08001 -1.96,-1.96 -0.2,-0.28 -0.28,-0.60001 -0.28,-0.88 l 23.44,0 c 0.24,0 0.4,-0.16001 0.48,-0.36 0.36,-1.24 0.68,-2.28001 0.96,-3.28 0.28,-0.04 0.6,-0.08 0.92,-0.12 4.08,-0.84 5.72,-4.32001 5.72,-9.08 0,-6.68 -5.72001,-12.92 -12.56,-12.92 m -2.92,2 c 0,-0.12 0,-0.24 0,-0.32 0.2,-0.08 0.4,-0.12 0.6,-0.16 0,0.83999 0.08,2.04 0.12,2.44 0.04,0.27999 0.08,0.48 0,0.48 -0.32,0 -0.72,-2.00001 -0.72,-2.44 m -17.96,12.96 c 0,0.23999 -0.08,0.28 -0.44,0.28 -0.6,0 -1.12,-0.16001 -1.12,-0.6 0,-0.2 0.2,-0.24 0.72,-0.24 0.68,0 0.84,0.12 0.84,0.56 m 2.84,1.84 c -0.12,0 -0.2,-0.04 -0.2,-0.16 0,-0.2 0.56,-1 1.04,-1 0.08,0 0.12,0.04 0.12,0.12 0,0.43999 -0.56,1.04 -0.96,1.04 m -0.36,0.64 c 0,0.19999 -0.08,0.52 -0.24,0.92 -0.2,0.47999 -0.48,1.48 -0.6,2.24 -0.16,0.91999 -0.4,1.4 -0.56,1.4 -0.12,0 -0.2,-0.28001 -0.2,-0.76 0,-0.8 0.24,-2.32001 0.4,-2.52 0.08,-0.12 0.8,-1.56 1.08,-1.56 0.08,0 0.12,0.12 0.12,0.28 m -5.44,6.8 c 0.68,0 1.04,0.36 1.24,0.96 l 0.2,0.68 -0.88,-0.48 c -0.64,-0.32 -0.96,-0.68001 -0.96,-0.92 0,-0.16 0.16,-0.24 0.4,-0.24 m 18.32,-26.8 -5.88,0 c -0.4,-0.68 -0.72,-1.24001 -0.72,-1.52 0,-0.36 0.28,-1.24 0.16,-1.24 -0.16,0 -0.72,1 -0.84,1 -0.12,0 -0.44,-0.32 -0.6,-0.32 -0.16,0 -0.2,0.76 -0.2,0.88 0,0.12 0.32,0.6 0.72,1.2 l -8.16,0 c 0,-0.12 0.04,-0.16 0.08,-0.16 1.28,-0.68 2.4,-1.04001 2.4,-2.56 0,-0.4 -0.72,-0.8 0.2,-0.8 l 6.68,0 c 0.72,0 1.04,0.2 1.04,0.84 0,0.51999 -0.12,0.28 -0.12,0.84 0,0.47999 2.04,1.6 3.08,1.6 1,0 2.28,-0.20001 2.28,-1.6 0,-0.16 -0.04,-0.40001 -0.04,-0.6 0,-0.4 0.88,-1.08 1.76,-1.08 l 3.48,0 c 0.24,0 0.56,0 0.56,0.12 0,0.12 -1.04,1.08 -1.64,1.88 -0.68,0.83999 -1.68,2.44 -2.08,4.56 -3.92,1.15999 -7.12,4.32 -7.12,8.6 0,1.23999 0.76,2.84 1.04,3 0.16,0.08 0.44,0.52 0.44,0.72 0,0.39999 -0.76,1.04 -0.76,1.72 0,0.47999 0.32,0.8 0.2,0.8 -0.08,0 -0.28,-0.08 -0.4,-0.16 -0.24,-0.16 -0.52,-0.52 -0.76,-0.52 -0.24,-0.04 -0.48,-0.04 -0.72,-0.04 l 0,-13.16 c 0,-0.48 0.04,-0.88001 0.2,-1.2 0,0 0,0 0.04,0 0.44,0 0.64,0.16 0.72,0.52 0.08,0.43999 0.36,0.68 0.56,0.68 0.12,0 0.2,-0.08 0.2,-0.32 0,-0.24 0.08,-0.36 0.24,-0.36 0.28,0 0.44,0.36 0.44,0.76 0,0.43999 0.16,0.68 0.4,0.68 0.36,0 0.64,-0.52001 0.64,-0.96 0,-0.28 0.12,-0.4 0.28,-0.4 0.16,0 0.4,0.16 0.56,0.44 0.12,0.23999 0.24,0.36 0.4,0.36 0.28,0 0.72,-0.28001 0.72,-0.48 0,-0.12 -0.16,-0.24 -0.16,-0.36 0,-0.24 0.32,-0.44 0.84,-0.44 0.2,0 0.56,0.08 0.76,0.08 0.36,0 0.4,-0.16001 0.4,-0.8 0,-0.52 0.12,-0.8 0.28,-0.8 l 0.12,0 c 0.16,0 0.28,-0.20001 0.28,-0.6 0,-0.44 -0.16,-0.68 -0.32,-0.72 -0.52,-0.16 0.52,-0.88001 0.52,-1.16 0,-0.24 -0.2,-0.48 -0.32,-0.48 -0.12,0 -0.36,0.24 -0.48,0.24 -0.08,0 -0.12,-0.08 -0.12,-0.2 0,-0.2 -0.24,-0.52001 -0.52,-0.76 l -0.52,-0.44 0.24,0.44 c 0.08,0.19999 1.16,1.4 0.8,2.28 -0.72,1.55999 -1.64,3.08 -3.2,3.08 -1.48,0 -3.08,-0.20001 -3.08,-0.96 0,-0.12 -0.04,-0.2 -0.04,-0.28 1,-0.88 2.8,-1.20001 5.04,-1.48 0.2,-0.04 0.16,-0.36 0,-0.36"
           inkscape:connector-curvature="0"
           style="fill:#aa0000" />
      </g>
      <g
         id="text2985-8"
         style="font-size:40.10296631px;font-style:normal;font-variant:normal;font-weight:normal;font-stretch:normal;line-height:125%;letter-spacing:0px;word-spacing:0px;fill:#ff0000;fill-opacity:1;stroke:none;font-family:EB Garamond Initials Fill2;-inkscape-font-specification:EB Garamond Initials Fill2"
         transform="scale(1.0025742,0.99743244)">
        <path
           sodipodi:nodetypes="cscsscsscccsssscc"
           inkscape:connector-curvature="0"
           id="path3014"
           d="m 130.376,133.31285 -16.58383,0 c -0.16041,0 -0.24062,0.40103 0,0.40103 3.52906,0.52134 5.93524,0.96247 5.93524,3.60926 l 0,20.85355 c 0,2.64679 -2.40618,2.64679 -5.93524,3.12803 -0.24062,0.0401 -0.20052,0.40103 0,0.40103 l 26.50806,0 c 0.24062,0 0.40103,-0.12031 0.48124,-0.36093 1.00257,-3.28844 1.52391,-5.13318 2.24576,-8.54193 0.0401,-0.16041 -0.44113,0 -0.48123,0.16041 -1.64422,4.53163 -4.25092,7.44019 -9.74502,7.44019 l -5.3337,0 c -2.22986,0 -2.91933,-0.83291 -2.91933,-4.00105 l 0,-18.9286 c 0,-2.64679 2.25889,-3.27873 5.82805,-3.80007 0.20051,0 0.16041,-0.36092 0,-0.36092"
           style="fill:#000000" />
      </g>
    </g>
  </g>
</svg>
