<?xml version="1.0" encoding="UTF-8" standalone="no"?>
<!-- Created with Inkscape (http://www.inkscape.org/) -->

<svg
   xmlns:dc="http://purl.org/dc/elements/1.1/"
   xmlns:cc="http://creativecommons.org/ns#"
   xmlns:rdf="http://www.w3.org/1999/02/22-rdf-syntax-ns#"
   xmlns:svg="http://www.w3.org/2000/svg"
   xmlns="http://www.w3.org/2000/svg"
   xmlns:sodipodi="http://sodipodi.sourceforge.net/DTD/sodipodi-0.dtd"
   xmlns:inkscape="http://www.inkscape.org/namespaces/inkscape"
   width="110.21"
   height="131.33624"
   id="svg5062"
   version="1.1"
   inkscape:version="0.48.3.1 r9886"
   sodipodi:docname="fenix.svg">
  <defs
     id="defs5064" />
  <sodipodi:namedview
     id="base"
     pagecolor="#ffffff"
     bordercolor="#666666"
     borderopacity="1.0"
     inkscape:pageopacity="0.0"
     inkscape:pageshadow="2"
     inkscape:zoom="1.9965909"
     inkscape:cx="88.571429"
     inkscape:cy="45.714286"
     inkscape:document-units="px"
     inkscape:current-layer="layer1"
     showgrid="false"
     fit-margin-top="0"
     fit-margin-left="0"
     fit-margin-right="0"
     fit-margin-bottom="0"
     inkscape:window-width="919"
     inkscape:window-height="741"
     inkscape:window-x="281"
     inkscape:window-y="177"
     inkscape:window-maximized="0" />
  <metadata
     id="metadata5067">
    <rdf:RDF>
      <cc:Work
         rdf:about="">
        <dc:format>image/svg+xml</dc:format>
        <dc:type
           rdf:resource="http://purl.org/dc/dcmitype/StillImage" />
        <dc:title></dc:title>
      </cc:Work>
    </rdf:RDF>
  </metadata>
  <g
     inkscape:label="Capa 1"
     inkscape:groupmode="layer"
     id="layer1"
     transform="translate(-190.60929,-235.26548)">
    <path
       inkscape:connector-curvature="0"
       d="m 247.65054,265.19548 c 1.07375,0.0163 1.7925,-0.32 2.1125,-1.0575 -0.4625,-0.3575 -1.2975,-0.34375 -1.76,-0.70375 0.29,0.99625 -0.49625,0.9125 -0.3525,1.76125 z m -2.1125,-1.40875 c 0.62375,0.315 0.44875,1.42875 1.76,1.05625 0.4175,-1.45 -1.35,-2.5125 -1.76,-1.05625 z m -23.59125,67.605 c -0.83875,-0.76875 0.72,0.17625 1.40875,0 0.705,-0.2775 -1.785,-2.165 -0.3525,-3.16875 0.1825,-1.62375 1.255,1.09625 2.81625,0.35125 5.17625,-1.39875 4.87875,-8.2675 10.21125,-9.5075 -1.27875,-2.12375 -2.0525,-4.75375 -2.81625,-7.39375 -2.54875,5.785 -5.43125,11.23625 -10.21125,14.7875 -0.89375,-2.8925 -0.1975,-7.235 0.705,-9.505 -2.6825,1.89625 -5.32875,6.87625 -9.86,8.0975 0.4075,-4.2875 1.25875,-8.13 2.465,-11.61875 -3.09875,1.94875 -6.5875,6.55625 -11.9725,7.3925 1.03,-5.19125 2.91875,-9.52125 5.635,-13.02625 -2.8125,0.71125 -6.36125,3.73 -10.56375,4.225 0.9175,-5.06875 3.6225,-8.34875 6.33875,-11.62 -2.89375,0.8625 -5.99,1.5225 -9.86,1.40875 1.83125,-4.38875 4.86375,-7.57875 9.155,-9.5075 -3.46,-0.6475 -7.6625,-0.5525 -10.5625,-1.76 2.25,-2.9125 5.38,-4.9475 9.50625,-5.985 -2.85625,-1.605 -7.5525,-1.36875 -9.155,-4.22625 2.92125,-1.18625 5.57875,-2.6375 9.50625,-2.81625 -3.97875,-2.36 -7.79625,-4.8775 -10.5625,-8.45125 2.07,-1.535 5.92,-0.1875 8.45125,0 -2.0475,-3.12875 -8.605,-6.63625 -7.74625,-12.675 1.8775,-0.35375 2.45,0.6 3.52125,1.055 -1.585,-3.24875 -5.63125,-5.84125 -4.57875,-10.5625 2.265,-0.0337 3.0275,1.4325 4.57875,2.1125 -2.77,-4.2725 -6.71375,-7.37125 -7.395,-13.7325 7.89625,2.315 11.25625,9.16625 17.605,13.02875 0.6325,-0.42875 -0.395,-2.1625 0,-3.52125 4.28,8.1125 25.69875,14.51375 23.94375,29.225 -0.63625,5.33375 -6.97,9.0975 -4.93,14.08375 0.5775,1.41125 3.29375,3.05125 4.5775,2.8175 2.57875,-0.47 3.015,-5.6175 5.63375,-5.635 -0.82375,-1.0525 -1.70625,-2.0475 -1.76125,-3.8725 1.21625,0.54375 3.09625,1.0975 4.5775,0.3525 -0.91,-1.32 -3.1275,-1.3325 -2.81625,-3.87375 0.8775,0.2975 1.88625,0.46125 3.16875,0.35375 -1.29875,-0.815 -2.53625,-1.69 -2.1125,-4.22625 1.37375,1.31125 3.67,0.425 4.225,-1.05625 -2.475,-0.5775 -5.03,-1.0725 -5.98625,-3.16875 1.81375,-0.2025 5.53,0.8225 7.7475,-0.3525 -2.70375,-1.99125 -9.9275,0.5375 -10.915,-3.16875 2.76,1.7725 7.78125,-0.795 10.5625,1.05625 -0.23625,-2.19375 -4.70875,-1.135 -5.98625,-3.17 -1.25375,-0.0787 -1.84125,0.5075 -1.76,1.76125 -2.35375,-1.35375 -1.35875,-3.87875 0,-4.92875 0.83375,-0.645 2.84125,-0.11 4.5775,-0.705 1.47875,-0.50625 2.36,-1.69125 3.16875,-1.76 3.9725,-0.34125 7.2825,4.7075 10.56375,2.1125 0.8175,-0.355 1.135,-1.2125 1.055,-2.465 3.84,2.25125 1.12875,7.43875 -1.055,9.50625 -0.075,1.38375 1.575,1.79125 2.1125,0.705 0.91375,0.825 0.12375,2.92125 -0.3525,3.52125 -0.84375,0.2125 -1.60625,0.50625 -2.8175,0.3525 0.2575,1.8825 1.92625,0.8025 2.46625,1.055 0.1425,2.49125 -1.45125,3.245 -3.87375,3.16875 -0.27875,1.21875 0.39125,1.4875 0.70375,2.11375 1.045,0.30625 1.7375,-1.50375 2.1125,-0.705 0.49125,2.95625 -1.57625,3.35375 -3.16875,4.225 0.9325,1.36625 2.25875,-0.9 2.8175,0 0.0238,1.19875 0.10875,2.4575 -0.705,2.8175 2.35625,1.4 3.29125,4.22 5.28125,5.98625 3.525,-0.53875 6,-2.04125 5.2825,-6.3375 -0.8075,-4.8325 -6.125,-7.25625 -5.2825,-14.085 1.545,-12.50625 18.0425,-16.28375 23.59125,-25.70375 0.97875,0.77625 -0.0488,2.51 0,3.52125 6.72625,-3.605 9.88,-10.7775 17.95875,-13.02875 -0.76375,5.92625 -4.13125,9.25125 -7.04375,13.02875 1.8775,-0.001 2.05375,-1.7025 4.22625,-1.40875 1.11125,1.54875 -0.285,3.09 -1.0575,3.87375 0.315,-0.15625 0.63,-0.31 0.70625,-0.70375 -0.195,2.155 -2.5325,5.2125 -4.22625,7.04125 0.33875,0.41 2.58,-1.66375 3.8725,-0.3525 -0.67125,6.25375 -5.06375,8.78375 -8.45,12.32375 2.84125,-0.21875 5.96125,-1.2075 8.80375,-0.3525 -2.64,3.8175 -6.26,6.6525 -10.91625,8.45125 3.59125,0.75 6.915,1.77 9.85875,3.16875 -1.71875,2.625 -5.8275,2.85875 -9.155,3.87375 3.5275,1.63625 7.06,3.2675 9.50625,5.985 -2.50625,1.6 -6.46625,1.75 -10.56125,1.76125 3.91625,2.305 7.095,5.34375 9.1525,9.50625 -3.025,0.90875 -7.12875,-0.14375 -9.50625,-1.05625 1.46,3.0025 5.35875,6.61375 5.98625,11.62 -4.0375,-0.89125 -7.44375,-2.41625 -10.21,-4.5775 1.09875,3.37625 5.2025,8.6275 4.92875,13.37875 -5.04875,-1.40625 -8.4225,-4.48875 -11.61875,-7.745 0.74625,2.775 2.15125,7.93875 2.46375,12.32375 -4.13375,-2.08625 -7.02625,-5.41375 -9.85875,-8.8025 0.85625,2.78125 1.23625,6.04 1.05625,9.8575 -5.0875,-3.24375 -8.175,-8.49 -10.21125,-14.7875 -1.87625,1.5275 -1.24,5.5675 -3.16875,7.0425 5.35375,1.24625 5.89375,12.44875 12.67625,8.80125 1.36625,0.84 0.475,3.1725 -0.3525,3.875 1.07625,0.255 1.2825,-0.36125 2.1125,-0.35375 -0.2925,1.35 -1.1525,2.13625 -2.1125,2.8175 2.66625,0.93 4.95125,-3.59125 8.09875,-3.52125 1.6475,0.0375 4.245,1.295 4.5775,3.8725 -3.08875,-0.72 -5.25125,2.16125 -8.80375,2.11375 1.6,2.4325 6.2575,-0.37 8.4525,1.40875 0.12375,1.95875 1.855,3.89 0.7025,5.985 -0.615,-2.2 -3.215,-2.42 -5.98625,-2.46375 0.65875,1.7875 -0.0825,6.18375 -2.4625,7.04125 0.15625,-2.97375 -2.89,-2.745 -2.46625,-5.98625 -3.315,-0.51375 -5.2575,3.35375 -7.74625,1.40875 -1.03,0.38 -1.84375,0.97375 -1.76125,2.465 -2.3375,-3.2125 1.32625,-8.16625 6.69,-7.04375 -0.68,-1.5475 -2.805,-1.6525 -3.52,-3.16875 -0.765,0.99625 -0.82375,2.7 -2.465,2.8175 -1.445,0.16125 0.1425,-0.75125 -0.3525,-1.76 -1.095,1.37 -2.4625,2.46625 -5.28125,2.11125 0.29625,-0.99375 1.61125,-0.96875 1.76,-2.11125 -1.6775,0.63 -4.8625,0.6475 -4.92875,-1.40875 1.34375,0.17125 2.2475,-0.1 2.81625,-0.70375 -0.80375,-0.6925 -1.825,0.2325 -2.81625,-0.705 2.075,-0.8275 1.32625,-3.80625 0.3525,-5.28 -4.43125,9.82375 3.0575,20.77125 14.435,20.42125 -1.90125,2.3375 -7.62375,2.7225 -10.5625,1.0575 0.265,1.3825 2.93125,3.40125 5.28125,3.8725 -3.12625,1.83875 -7.655,-0.0787 -9.50625,-1.76 0.97875,7.785 -2.80625,10.8075 -6.3375,14.08375 -4.00375,-2.805 -7.50375,-6.11 -6.69,-13.7325 -1.75375,0.5225 -5.64875,3.28375 -9.5075,1.76 2.12625,-1.16 4.3225,-2.24875 5.63375,-4.22375 -3.2775,1.51125 -8.3375,1.2325 -10.915,-0.705 10.93625,-0.48125 18.51375,-10.1275 14.78875,-20.77375 -1.26375,0.575 -2.46125,4.7675 0,4.92875 -0.62625,1.1275 -1.5725,0.88875 -2.8175,0.705 0.24,1.05 1.40125,1.18 2.8175,1.055 0.005,1.875 -3.075,2.1775 -4.57875,1.40875 -0.74125,0.4275 0.67875,1.64 1.40875,1.76 -1.7725,0.94 -4.6975,0.0125 -4.92875,-1.76 -1.20125,0.14625 0.5325,1.93125 -0.3525,1.76 -1.6975,-0.06 -2.315,-1.20625 -2.465,-2.8175 -1.39875,0.8325 -2.4925,1.9675 -3.8725,2.8175 4.77125,-0.17 8.79375,3.28625 7.04125,7.395 -0.43125,-0.97625 -1.17,-1.6475 -1.76,-2.465 -2.68,1.91125 -4.57375,-1.62375 -7.74625,-1.40875 -0.3625,2.5725 -2.65,3.22 -2.8175,5.98625 -2.19625,-0.76 -3.60875,-4.77625 -2.1125,-7.04125 -2.57125,0.24625 -5.88375,-0.25125 -5.985,2.46375 -2.14,-1.65375 0.3975,-2.9175 0,-5.6325 1.89,-2.07125 6.4275,0.4025 8.8025,-1.40875 -2.8925,-0.4475 -6.345,-3.51375 -8.8025,-2.1125 0.72625,-6.79125 8.54375,-2.9875 12.32375,-0.35375 0.56625,-0.88375 -1.99,-1.82125 -1.40875,-2.815"
       style="fill:#2b1100;fill-opacity:1;fill-rule:evenodd;stroke:none"
       id="path528" />
  </g>
</svg>
